<svg xmlns="http://www.w3.org/2000/svg" width="512" height="512" viewBox="0 0 512 512">
  <defs>
    <radialGradient id="bg" cx="50%" cy="50%" r="50%">
      <stop offset="0%" stop-color="#28f46f" stop-opacity="0.22"/>
      <stop offset="58%" stop-color="#07192e" stop-opacity="0.86"/>
      <stop offset="100%" stop-color="#020711" stop-opacity="0"/>
    </radialGradient>
    <filter id="glow" x="-60%" y="-60%" width="220%" height="220%">
      <feGaussianBlur stdDeviation="10" result="blur"/>
      <feMerge>
        <feMergeNode in="blur"/>
        <feMergeNode in="SourceGraphic"/>
      </feMerge>
    </filter>
    <linearGradient id="metal" x1="20%" y1="10%" x2="80%" y2="90%">
      <stop offset="0%" stop-color="#eef7ff"/>
      <stop offset="44%" stop-color="#28f46f"/>
      <stop offset="100%" stop-color="#168cff"/>
    </linearGradient>
  </defs>
  <rect width="512" height="512" fill="none"/>
  <circle cx="256" cy="256" r="216" fill="url(#bg)"/>
  <path d="M128 62h256l92 194-92 194H128L36 256z" fill="rgba(2,7,17,0.72)" stroke="#28f46f" stroke-width="8" filter="url(#glow)"/>
  <path d="M151 105h210l70 151-70 151H151L81 256z" fill="none" stroke="#28f46f" stroke-opacity="0.38" stroke-width="3"/>
  <path d="M256 382C159 308 120 250 130 197c8-43 45-70 88-56 19 6 31 20 38 33 7-13 19-27 38-33 43-14 80 13 88 56 10 53-29 111-126 185z" fill="url(#metal)" filter="url(#glow)"/>
</svg>