<svg xmlns="http://www.w3.org/2000/svg" width="512" height="512" viewBox="0 0 512 512">
  <defs>
    <radialGradient id="bg" cx="50%" cy="50%" r="50%">
      <stop offset="0%" stop-color="#57e7ff" stop-opacity="0.22"/>
      <stop offset="58%" stop-color="#07192e" stop-opacity="0.86"/>
      <stop offset="100%" stop-color="#020711" stop-opacity="0"/>
    </radialGradient>
    <filter id="glow" x="-60%" y="-60%" width="220%" height="220%">
      <feGaussianBlur stdDeviation="10" result="blur"/>
      <feMerge>
        <feMergeNode in="blur"/>
        <feMergeNode in="SourceGraphic"/>
      </feMerge>
    </filter>
    <linearGradient id="metal" x1="20%" y1="10%" x2="80%" y2="90%">
      <stop offset="0%" stop-color="#eef7ff"/>
      <stop offset="44%" stop-color="#57e7ff"/>
      <stop offset="100%" stop-color="#168cff"/>
    </linearGradient>
  </defs>
  <rect width="512" height="512" fill="none"/>
  <circle cx="256" cy="256" r="216" fill="url(#bg)"/>
  <path d="M128 62h256l92 194-92 194H128L36 256z" fill="rgba(2,7,17,0.72)" stroke="#57e7ff" stroke-width="8" filter="url(#glow)"/>
  <path d="M151 105h210l70 151-70 151H151L81 256z" fill="none" stroke="#57e7ff" stroke-opacity="0.38" stroke-width="3"/>
  <path d="M256 142l28 14 30-20 34 34-20 30 14 28 36 7v48l-36 7-14 28 20 30-34 34-30-20-28 14-7 36h-48l-7-36-28-14-30 20-34-34 20-30-14-28-36-7v-48l36-7 14-28-20-30 34-34 30 20 28-14 7-36z" fill="#57e7ff" filter="url(#glow)"/><circle cx="256" cy="256" r="52" fill="#020711" stroke="#eef7ff" stroke-width="12"/>
</svg>